<mxfile host="app.diagrams.net" agent="Mozilla/5.0 (Windows NT 10.0; Win64; x64) AppleWebKit/537.36 (KHTML, like Gecko) Chrome/136.0.0.0 Safari/537.36 Edg/136.0.0.0" version="27.0.3">
  <diagram name="第 1 页" id="TFwuxgqA1DKXu50AMiJM">
    <mxGraphModel dx="1500" dy="826" grid="1" gridSize="10" guides="1" tooltips="1" connect="1" arrows="1" fold="1" page="1" pageScale="1" pageWidth="827" pageHeight="1169" math="0" shadow="0">
      <root>
        <mxCell id="0" />
        <mxCell id="1" parent="0" />
        <mxCell id="VtJKKTwL4MApZNKruCzD-1" value="" style="edgeStyle=orthogonalEdgeStyle;rounded=0;orthogonalLoop=1;jettySize=auto;html=1;" edge="1" parent="1" source="VtJKKTwL4MApZNKruCzD-2" target="VtJKKTwL4MApZNKruCzD-4">
          <mxGeometry relative="1" as="geometry" />
        </mxCell>
        <mxCell id="VtJKKTwL4MApZNKruCzD-2" value="&lt;font style=&quot;font-size: 14px;&quot;&gt;开始&lt;/font&gt;" style="strokeWidth=2;html=1;shape=mxgraph.flowchart.terminator;whiteSpace=wrap;" vertex="1" parent="1">
          <mxGeometry x="200" y="240" width="100" height="50" as="geometry" />
        </mxCell>
        <mxCell id="VtJKKTwL4MApZNKruCzD-3" value="" style="edgeStyle=orthogonalEdgeStyle;rounded=0;orthogonalLoop=1;jettySize=auto;html=1;" edge="1" parent="1" source="VtJKKTwL4MApZNKruCzD-4" target="VtJKKTwL4MApZNKruCzD-6">
          <mxGeometry relative="1" as="geometry" />
        </mxCell>
        <mxCell id="VtJKKTwL4MApZNKruCzD-4" value="&lt;p class=&quot;MsoNormal&quot;&gt;&lt;font style=&quot;font-size: 14px;&quot;&gt;&lt;font style=&quot;&quot;&gt;ESP32&lt;/font&gt;&lt;font style=&quot;&quot;&gt;通过&lt;/font&gt;&lt;font style=&quot;&quot;&gt;checkAllDevices&lt;/font&gt;&lt;font style=&quot;&quot;&gt;函数获取所有设备状态&lt;/font&gt;&lt;/font&gt;&lt;/p&gt;" style="whiteSpace=wrap;html=1;strokeWidth=2;" vertex="1" parent="1">
          <mxGeometry x="180" y="320" width="140" height="60" as="geometry" />
        </mxCell>
        <mxCell id="VtJKKTwL4MApZNKruCzD-5" value="" style="edgeStyle=orthogonalEdgeStyle;rounded=0;orthogonalLoop=1;jettySize=auto;html=1;" edge="1" parent="1" source="VtJKKTwL4MApZNKruCzD-6" target="VtJKKTwL4MApZNKruCzD-8">
          <mxGeometry relative="1" as="geometry" />
        </mxCell>
        <mxCell id="VtJKKTwL4MApZNKruCzD-6" value="&lt;div style=&quot;line-height: 30%;&quot;&gt;&lt;p class=&quot;MsoNormal&quot;&gt;&lt;span style=&quot;font-size: 14px; background-color: transparent; color: light-dark(rgb(0, 0, 0), rgb(255, 255, 255));&quot;&gt;OneNET云平台转&lt;/span&gt;&lt;/p&gt;&lt;p class=&quot;MsoNormal&quot;&gt;&lt;span style=&quot;font-size: 14px; background-color: transparent; color: light-dark(rgb(0, 0, 0), rgb(255, 255, 255));&quot;&gt;发&lt;/span&gt;&lt;span style=&quot;background-color: transparent; color: light-dark(rgb(0, 0, 0), rgb(255, 255, 255)); font-size: 14px;&quot;&gt;最新设备状态&lt;/span&gt;&lt;/p&gt;&lt;/div&gt;" style="whiteSpace=wrap;html=1;strokeWidth=2;" vertex="1" parent="1">
          <mxGeometry x="190" y="420" width="120" height="60" as="geometry" />
        </mxCell>
        <mxCell id="VtJKKTwL4MApZNKruCzD-7" value="" style="edgeStyle=orthogonalEdgeStyle;rounded=0;orthogonalLoop=1;jettySize=auto;html=1;" edge="1" parent="1" source="VtJKKTwL4MApZNKruCzD-8" target="VtJKKTwL4MApZNKruCzD-11">
          <mxGeometry relative="1" as="geometry" />
        </mxCell>
        <mxCell id="VtJKKTwL4MApZNKruCzD-8" value="&lt;p class=&quot;MsoNormal&quot;&gt;&lt;font style=&quot;font-size: 14px;&quot; face=&quot;Helvetica&quot;&gt;后端遍历设备状态&lt;/font&gt;&lt;/p&gt;" style="whiteSpace=wrap;html=1;strokeWidth=2;" vertex="1" parent="1">
          <mxGeometry x="190" y="524" width="120" height="60" as="geometry" />
        </mxCell>
        <mxCell id="VtJKKTwL4MApZNKruCzD-9" value="" style="edgeStyle=orthogonalEdgeStyle;rounded=0;orthogonalLoop=1;jettySize=auto;html=1;" edge="1" parent="1" source="VtJKKTwL4MApZNKruCzD-11" target="VtJKKTwL4MApZNKruCzD-14">
          <mxGeometry relative="1" as="geometry" />
        </mxCell>
        <mxCell id="VtJKKTwL4MApZNKruCzD-10" value="" style="edgeStyle=orthogonalEdgeStyle;rounded=0;orthogonalLoop=1;jettySize=auto;html=1;" edge="1" parent="1" source="VtJKKTwL4MApZNKruCzD-11" target="VtJKKTwL4MApZNKruCzD-19">
          <mxGeometry relative="1" as="geometry" />
        </mxCell>
        <mxCell id="VtJKKTwL4MApZNKruCzD-11" value="&lt;div style=&quot;line-height: 30%;&quot;&gt;&lt;p class=&quot;MsoNormal&quot;&gt;&lt;span style=&quot;line-height: 30%;&quot;&gt;&lt;font style=&quot;font-size: 14px;&quot;&gt;数据库中是&lt;/font&gt;&lt;/span&gt;&lt;/p&gt;&lt;p class=&quot;MsoNormal&quot;&gt;&lt;span style=&quot;background-color: transparent; color: light-dark(rgb(0, 0, 0), rgb(255, 255, 255)); line-height: 30%;&quot;&gt;&lt;font style=&quot;font-size: 14px;&quot;&gt;否有此设备&lt;/font&gt;&lt;/span&gt;&lt;/p&gt;&lt;/div&gt;" style="rhombus;whiteSpace=wrap;html=1;strokeWidth=2;" vertex="1" parent="1">
          <mxGeometry x="180" y="620" width="140" height="90" as="geometry" />
        </mxCell>
        <mxCell id="VtJKKTwL4MApZNKruCzD-13" value="" style="edgeStyle=orthogonalEdgeStyle;rounded=0;orthogonalLoop=1;jettySize=auto;html=1;" edge="1" parent="1" source="VtJKKTwL4MApZNKruCzD-14" target="VtJKKTwL4MApZNKruCzD-20">
          <mxGeometry relative="1" as="geometry" />
        </mxCell>
        <mxCell id="VtJKKTwL4MApZNKruCzD-29" value="" style="edgeStyle=orthogonalEdgeStyle;rounded=0;orthogonalLoop=1;jettySize=auto;html=1;" edge="1" parent="1" source="VtJKKTwL4MApZNKruCzD-14" target="VtJKKTwL4MApZNKruCzD-16">
          <mxGeometry relative="1" as="geometry" />
        </mxCell>
        <mxCell id="VtJKKTwL4MApZNKruCzD-14" value="&lt;div style=&quot;line-height: 30%;&quot;&gt;&lt;p class=&quot;MsoNormal&quot;&gt;&lt;span style=&quot;background-color: transparent; color: light-dark(rgb(0, 0, 0), rgb(255, 255, 255));&quot;&gt;&lt;font style=&quot;font-size: 14px;&quot;&gt;该设备原&lt;/font&gt;&lt;/span&gt;&lt;/p&gt;&lt;p class=&quot;MsoNormal&quot;&gt;&lt;font style=&quot;font-size: 14px;&quot;&gt;&lt;span style=&quot;background-color: transparent; color: light-dark(rgb(0, 0, 0), rgb(255, 255, 255));&quot;&gt;status是否等于&lt;/span&gt;&lt;span style=&quot;background-color: transparent; color: light-dark(rgb(0, 0, 0), rgb(255, 255, 255));&quot;&gt;现&lt;/span&gt;&lt;/font&gt;&lt;/p&gt;&lt;p class=&quot;MsoNormal&quot;&gt;&lt;font style=&quot;font-size: 14px;&quot;&gt;&lt;span style=&quot;background-color: transparent; color: light-dark(rgb(0, 0, 0), rgb(255, 255, 255));&quot;&gt;status&lt;/span&gt;&lt;/font&gt;&lt;/p&gt;&lt;/div&gt;" style="rhombus;whiteSpace=wrap;html=1;strokeWidth=2;" vertex="1" parent="1">
          <mxGeometry x="364" y="620" width="140" height="90" as="geometry" />
        </mxCell>
        <mxCell id="VtJKKTwL4MApZNKruCzD-34" value="" style="edgeStyle=orthogonalEdgeStyle;rounded=0;orthogonalLoop=1;jettySize=auto;html=1;" edge="1" parent="1" source="VtJKKTwL4MApZNKruCzD-16">
          <mxGeometry relative="1" as="geometry">
            <mxPoint x="434" y="870" as="targetPoint" />
          </mxGeometry>
        </mxCell>
        <mxCell id="VtJKKTwL4MApZNKruCzD-16" value="&lt;div style=&quot;line-height: 30%;&quot;&gt;&lt;p class=&quot;MsoNormal&quot;&gt;&lt;span style=&quot;line-height: 30%;&quot;&gt;&lt;font style=&quot;font-size: 14px;&quot; face=&quot;Helvetica&quot;&gt;只需要更新最后&lt;/font&gt;&lt;/span&gt;&lt;/p&gt;&lt;p class=&quot;MsoNormal&quot;&gt;&lt;span style=&quot;line-height: 30%;&quot;&gt;&lt;font style=&quot;font-size: 14px;&quot; face=&quot;Helvetica&quot;&gt;活跃时间&lt;/font&gt;&lt;/span&gt;&lt;/p&gt;&lt;/div&gt;" style="whiteSpace=wrap;html=1;strokeWidth=2;" vertex="1" parent="1">
          <mxGeometry x="374" y="752" width="120" height="60" as="geometry" />
        </mxCell>
        <mxCell id="VtJKKTwL4MApZNKruCzD-17" value="&lt;font style=&quot;font-size: 14px;&quot;&gt;结束&lt;/font&gt;" style="strokeWidth=2;html=1;shape=mxgraph.flowchart.terminator;whiteSpace=wrap;" vertex="1" parent="1">
          <mxGeometry x="200" y="845" width="100" height="50" as="geometry" />
        </mxCell>
        <mxCell id="VtJKKTwL4MApZNKruCzD-28" value="" style="edgeStyle=orthogonalEdgeStyle;rounded=0;orthogonalLoop=1;jettySize=auto;html=1;" edge="1" parent="1" source="VtJKKTwL4MApZNKruCzD-19" target="VtJKKTwL4MApZNKruCzD-17">
          <mxGeometry relative="1" as="geometry" />
        </mxCell>
        <mxCell id="VtJKKTwL4MApZNKruCzD-19" value="&lt;div style=&quot;line-height: 30%;&quot;&gt;&lt;p class=&quot;MsoNormal&quot;&gt;&lt;span style=&quot;line-height: 30%;&quot;&gt;&lt;font style=&quot;&quot; face=&quot;Helvetica&quot;&gt;&lt;font style=&quot;font-size: 14px;&quot;&gt;添加设备，&lt;/font&gt;&lt;/font&gt;&lt;/span&gt;&lt;/p&gt;&lt;p class=&quot;MsoNormal&quot;&gt;&lt;span style=&quot;line-height: 30%;&quot;&gt;&lt;font style=&quot;font-size: 14px;&quot; face=&quot;Helvetica&quot;&gt;&lt;font style=&quot;&quot;&gt;同时置&lt;/font&gt;&lt;font style=&quot;&quot;&gt;status=1&lt;/font&gt;&lt;/font&gt;&lt;/span&gt;&lt;/p&gt;&lt;/div&gt;" style="whiteSpace=wrap;html=1;strokeWidth=2;" vertex="1" parent="1">
          <mxGeometry x="190" y="752" width="120" height="60" as="geometry" />
        </mxCell>
        <mxCell id="VtJKKTwL4MApZNKruCzD-32" value="" style="edgeStyle=orthogonalEdgeStyle;rounded=0;orthogonalLoop=1;jettySize=auto;html=1;" edge="1" parent="1" source="VtJKKTwL4MApZNKruCzD-20">
          <mxGeometry relative="1" as="geometry">
            <mxPoint x="300" y="870" as="targetPoint" />
            <Array as="points">
              <mxPoint x="620" y="870" />
            </Array>
          </mxGeometry>
        </mxCell>
        <mxCell id="VtJKKTwL4MApZNKruCzD-20" value="&lt;p class=&quot;MsoNormal&quot;&gt;&lt;font style=&quot;font-size: 14px;&quot; face=&quot;Helvetica&quot;&gt;&lt;font style=&quot;&quot;&gt;需要更新&lt;/font&gt;&lt;font style=&quot;&quot;&gt;LastActiveTime&lt;/font&gt;&lt;font style=&quot;&quot;&gt;和&lt;/font&gt;&lt;font style=&quot;&quot;&gt;status&lt;/font&gt;&lt;/font&gt;&lt;span style=&quot;mso-spacerun:&#39;yes&#39;;font-family:Calibri;mso-fareast-font-family:宋体;&lt;br/&gt;mso-bidi-font-family:&#39;Times New Roman&#39;;font-size:10.5000pt;mso-font-kerning:1.0000pt;&quot;&gt;&lt;/span&gt;&lt;/p&gt;" style="whiteSpace=wrap;html=1;strokeWidth=2;" vertex="1" parent="1">
          <mxGeometry x="560" y="752" width="120" height="55" as="geometry" />
        </mxCell>
        <mxCell id="VtJKKTwL4MApZNKruCzD-23" value="&lt;font style=&quot;font-size: 14px;&quot;&gt;N&lt;/font&gt;" style="text;html=1;align=center;verticalAlign=middle;whiteSpace=wrap;rounded=0;" vertex="1" parent="1">
          <mxGeometry x="204" y="712" width="60" height="30" as="geometry" />
        </mxCell>
        <mxCell id="VtJKKTwL4MApZNKruCzD-24" value="&lt;font style=&quot;font-size: 14px;&quot;&gt;Y&lt;/font&gt;" style="text;html=1;align=center;verticalAlign=middle;whiteSpace=wrap;rounded=0;" vertex="1" parent="1">
          <mxGeometry x="388" y="712" width="60" height="30" as="geometry" />
        </mxCell>
        <mxCell id="VtJKKTwL4MApZNKruCzD-25" value="&lt;font style=&quot;font-size: 14px;&quot;&gt;Y&lt;/font&gt;" style="text;html=1;align=center;verticalAlign=middle;whiteSpace=wrap;rounded=0;" vertex="1" parent="1">
          <mxGeometry x="309" y="636" width="60" height="30" as="geometry" />
        </mxCell>
        <mxCell id="VtJKKTwL4MApZNKruCzD-26" value="&lt;font style=&quot;font-size: 14px;&quot;&gt;N&lt;/font&gt;" style="text;html=1;align=center;verticalAlign=middle;whiteSpace=wrap;rounded=0;" vertex="1" parent="1">
          <mxGeometry x="507" y="637" width="60" height="30" as="geometry" />
        </mxCell>
      </root>
    </mxGraphModel>
  </diagram>
</mxfile>
